<svg version="1.1" id="Layer_1" xmlns="http://www.w3.org/2000/svg" xmlns:xlink="http://www.w3.org/1999/xlink" x="0px" y="0px"
	 width="100%" viewBox="0 0 496 496" enable-background="new 0 0 496 496" xml:space="preserve">
<path fill="#000000" opacity="1.000000" stroke="none" 
	d="
M416.058533,293.132324 
	C397.802887,304.425781 377.922607,310.473236 357.583954,315.099487 
	C318.314880,324.031647 278.500427,328.024902 238.243912,326.845154 
	C231.082642,326.635284 227.065857,330.009369 223.747711,335.378265 
	C221.823471,338.491760 220.826401,342.022552 219.806992,345.446381 
	C217.621902,345.175903 217.885101,343.565704 217.515366,342.375916 
	C214.181290,331.647125 206.936768,325.095062 195.923248,323.346649 
	C173.353027,319.763611 151.206467,314.691895 129.984985,306.041687 
	C127.130440,304.878174 124.350273,303.532196 120.653214,301.875183 
	C123.626472,300.667542 125.203064,301.766083 126.805603,302.248352 
	C149.345688,309.031616 172.395111,312.991730 195.840820,314.774414 
	C196.837387,314.850220 197.874207,314.745697 198.827820,314.983551 
	C209.439545,317.630798 212.221542,314.317474 217.213882,303.159424 
	C217.854080,301.728577 217.368423,299.701630 219.659988,298.790497 
	C220.995895,302.688507 222.197159,306.612213 224.533875,310.041656 
	C227.252777,314.032013 230.588867,316.163696 235.741913,316.076538 
	C263.094086,315.613831 290.114990,312.333466 316.932373,307.130005 
	C340.538391,302.549652 363.638672,296.364197 384.965363,284.868164 
	C392.914001,280.583466 400.259644,275.398315 406.185608,268.439514 
	C419.148560,253.217224 418.608704,235.288635 404.811890,220.808548 
	C399.234406,214.954849 392.657654,210.474030 385.716980,206.449844 
	C384.356384,205.660965 382.497467,205.432785 382.030884,203.474960 
	C382.365662,203.325104 382.714264,203.018494 382.931183,203.093384 
	C402.010315,209.678116 420.247650,217.842834 433.242584,234.083389 
	C445.175598,248.996857 443.921600,266.973846 430.604340,281.215607 
	C426.377472,285.735840 421.527740,289.537109 416.058533,293.132324 
z"/>
<path fill="#000000" opacity="1.000000" stroke="none" 
	d="
M160.472656,179.282532 
	C184.918549,175.494965 209.045746,173.111588 233.365799,172.561157 
	C241.519714,172.376617 249.622498,171.877487 257.798859,172.548981 
	C266.644043,173.275406 269.416931,171.083466 272.775238,162.733368 
	C273.543823,160.822372 273.238739,158.324982 275.703308,156.950684 
	C276.297272,158.754120 276.759186,160.495117 277.434235,162.149139 
	C280.744202,170.259354 285.890320,174.802750 295.472534,175.946777 
	C321.158752,179.013458 346.152252,185.360245 369.916473,195.924957 
	C370.812500,196.323288 371.636017,196.904770 372.439362,197.476685 
	C372.626740,197.610077 372.593536,198.053375 372.777374,198.862900 
	C365.074615,196.773666 357.644348,194.615326 350.140930,192.751755 
	C332.339905,188.330597 314.178375,186.138474 295.960022,184.417526 
	C288.026031,183.668076 280.853882,189.387772 277.458252,198.846680 
	C276.750244,200.818909 276.289032,202.879761 275.698242,204.955521 
	C273.616882,204.111374 273.964569,202.400864 273.613861,201.025192 
	C270.872131,190.271301 261.825470,183.187149 250.837097,183.329147 
	C212.666489,183.822342 175.186646,188.862656 139.027802,201.485336 
	C120.549133,207.936050 102.754959,215.949539 88.964142,230.592133 
	C82.645195,237.301331 78.099823,244.818054 78.275375,254.556854 
	C78.438385,263.598938 82.321037,270.887054 88.146301,277.385956 
	C93.652519,283.528870 100.205048,288.354797 107.342720,292.432648 
	C108.751251,293.237335 110.440002,293.716248 111.235893,295.348816 
	C110.719765,296.435791 109.874695,296.098083 109.150620,295.832123 
	C93.735489,290.169647 79.095734,283.159729 66.667953,272.098328 
	C47.837914,255.338531 47.667717,231.552963 66.345146,214.642059 
	C76.651466,205.310516 88.828445,199.249329 101.674126,194.385269 
	C120.572067,187.229492 140.151367,182.683945 160.472656,179.282532 
z"/>
<path fill="#000000" opacity="1.000000" stroke="none" 
	d="
M268.229248,220.398590 
	C270.531525,216.892471 273.624512,218.663940 276.231049,218.700943 
	C289.377319,218.887527 289.392456,218.967758 289.243866,232.323288 
	C289.190155,237.151550 289.148926,241.984756 288.886292,246.803955 
	C288.744934,249.397186 288.267365,251.808777 291.837982,252.469437 
	C293.261932,252.732925 293.295227,254.103821 293.022034,255.328690 
	C292.914032,255.812958 292.666870,256.265076 292.544739,256.747467 
	C288.370087,273.233612 288.371185,273.243866 271.537262,273.292969 
	C266.708374,273.307068 261.876434,273.129913 257.050934,273.247375 
	C250.786423,273.399811 244.756149,272.704407 238.852295,268.867126 
	C238.544785,272.850769 236.103607,273.409515 232.983932,273.325836 
	C228.159363,273.196381 223.326584,273.334320 218.497955,273.404358 
	C212.823425,273.486694 207.993042,274.334869 203.447083,279.054230 
	C197.144073,285.597717 188.257416,285.151001 179.959503,283.151428 
	C175.590012,282.098511 170.387360,282.429749 167.686859,277.023590 
	C166.796890,275.241974 163.249130,276.083252 161.057587,276.547729 
	C156.714371,277.468140 153.934799,276.869232 154.933350,270.113770 
	C145.503128,279.007874 134.646530,279.370331 123.933372,280.356689 
	C120.318192,280.689514 118.880089,279.438080 118.658485,275.739655 
	C118.201645,268.115265 117.339775,260.514771 116.621841,252.906586 
	C116.448929,251.074158 116.355011,248.813156 114.086349,248.579849 
	C110.285194,248.188904 110.499420,245.926727 111.021187,243.269058 
	C111.885094,238.868744 112.905624,234.490234 113.537598,230.056549 
	C113.941750,227.221176 115.317627,225.967606 118.046089,225.756866 
	C129.244568,224.891983 140.624802,222.191727 150.582489,229.476410 
	C151.280792,228.989792 151.753632,228.831238 151.780655,228.616592 
	C152.568298,222.359741 156.658691,221.019135 162.068253,221.700821 
	C166.157089,222.216080 170.198288,219.768021 174.406113,221.383682 
	C175.421555,225.720047 171.949112,229.816635 174.159805,234.744370 
	C181.102890,230.196030 188.781418,230.583023 196.388809,230.565750 
	C200.123016,230.557281 201.232788,227.962387 201.565186,225.031998 
	C202.058029,220.687225 204.539017,219.113480 208.572830,219.069717 
	C213.538452,219.015839 218.509659,218.381027 223.204819,219.039719 
	C224.922684,220.673828 223.507401,222.481155 224.186127,224.301559 
	C228.446106,225.182571 232.250473,221.762680 236.363388,222.416748 
	C237.952469,224.334091 236.786041,226.586273 237.944458,228.664444 
	C246.228622,231.174088 254.797256,228.871857 263.276550,228.675049 
	C267.442780,228.578369 266.478180,223.464691 268.229248,220.398590 
M140.659851,232.704575 
	C135.095245,230.701965 129.484146,232.371735 123.899506,232.550308 
	C121.695610,232.620758 120.320656,233.920639 119.861145,236.238968 
	C119.492599,238.098404 118.873451,239.768829 121.255936,240.830109 
	C123.274651,241.729340 123.081116,243.794434 123.260658,245.586777 
	C123.888130,251.850388 124.411713,258.125977 125.146255,264.376892 
	C126.097511,272.472046 126.168350,272.463715 134.244629,271.764587 
	C145.486740,270.791382 152.390915,264.636292 154.363113,253.829010 
	C155.812119,245.888779 150.539612,237.440567 140.659851,232.704575 
M193.320206,261.620178 
	C196.317139,260.826202 195.017059,263.278931 195.132767,264.284546 
	C195.376389,266.401642 194.572052,268.218475 192.505722,269.212067 
	C189.836227,270.495697 187.041595,270.432709 184.206085,269.940674 
	C178.800690,269.002777 178.279327,269.460602 178.366684,275.077606 
	C182.896042,277.193665 187.749481,277.064545 192.510193,276.499268 
	C198.673584,275.767395 201.924423,271.859680 201.745178,265.676056 
	C201.514236,257.708832 200.858932,249.751450 200.736603,241.784470 
	C200.666031,237.189194 198.310760,236.717712 194.939636,237.984573 
	C192.986984,238.718384 191.282913,238.902710 189.221191,238.496613 
	C183.584869,237.386414 179.057968,239.451477 175.862991,244.169479 
	C172.665192,248.891647 172.580978,253.848587 175.506775,258.722107 
	C178.531631,263.760620 183.199905,265.738525 188.963974,265.679169 
	C191.458252,265.653473 192.603470,264.469330 193.320206,261.620178 
M267.815460,259.191132 
	C265.393768,253.272125 267.149139,247.088104 266.694305,241.042145 
	C266.368195,236.707153 264.677185,235.259247 260.696259,236.914261 
	C259.050293,237.598572 257.825409,237.890823 256.083099,237.348114 
	C247.828339,234.776749 239.378448,239.835480 237.547577,248.286285 
	C236.272400,254.172272 239.779968,261.150330 245.469147,264.136871 
	C247.898987,265.412415 250.523758,265.436920 253.163651,265.776947 
	C256.931000,266.262177 257.117554,262.655548 259.972107,259.904816 
	C259.240753,265.583435 262.036346,266.177002 265.379089,265.595490 
	C268.716858,265.014862 268.744904,262.485138 267.815460,259.191132 
M278.376892,265.746857 
	C282.454193,265.084503 284.829681,262.185150 282.846100,259.810760 
	C281.003723,257.605438 281.524109,255.600281 281.555206,253.338654 
	C281.662659,245.527908 281.687592,237.715973 281.734253,229.904434 
	C281.744537,228.180710 281.663605,226.430939 279.429749,226.133759 
	C277.676392,225.900513 275.638306,224.964310 274.287445,226.702286 
	C273.086182,228.247757 271.806000,230.735245 273.276215,232.121017 
	C276.364868,235.032288 275.146606,238.380951 274.840271,241.443024 
	C274.175293,248.090195 274.492126,254.728256 274.314667,261.367188 
	C274.252258,263.701904 274.408722,265.827545 278.376892,265.746857 
M223.335526,245.845093 
	C223.636276,251.321640 223.974106,256.796539 224.218994,262.275574 
	C224.313019,264.378937 224.893600,265.810059 227.347168,265.824158 
	C229.641525,265.837341 230.630844,264.811371 230.693085,262.518860 
	C230.917282,254.263260 228.923981,245.686874 235.263062,237.922516 
	C230.754929,237.273422 230.178726,234.081039 229.020004,231.799866 
	C222.970581,231.028076 223.392181,236.162018 221.661926,239.148224 
	C220.338882,241.431641 221.047012,243.510559 223.335526,245.845093 
M208.518829,237.725449 
	C206.401474,240.141907 206.001663,242.006256 207.807388,245.460129 
	C210.420609,250.458557 209.043686,256.563446 209.303116,262.202332 
	C209.383347,263.945984 208.854736,266.179382 211.500488,266.517151 
	C213.450058,266.766022 215.885147,267.234619 217.008636,265.268463 
	C217.958725,263.605774 219.658844,261.282562 217.421875,259.433777 
	C215.513657,257.856720 215.775879,255.928009 215.722198,253.992554 
	C215.625198,250.495758 215.540375,246.991898 215.654037,243.497620 
	C215.802048,238.946823 214.279190,236.387634 208.518829,237.725449 
M161.474579,240.122406 
	C157.313904,241.213760 156.707626,243.770996 159.037308,246.970444 
	C160.018173,248.317551 160.233887,249.594559 160.341278,251.073303 
	C160.664642,255.524948 161.030502,259.973541 161.349716,264.425476 
	C161.484726,266.308350 161.638458,268.332825 163.961563,268.597778 
	C165.833206,268.811249 168.194183,269.488861 169.413040,267.393463 
	C170.452911,265.605804 171.659149,263.352112 169.532684,261.523315 
	C168.079742,260.273773 167.820511,258.811890 167.700119,257.134369 
	C167.380478,252.680267 166.798340,248.230209 166.764359,243.775162 
	C166.738113,240.336075 165.387650,239.277115 161.474579,240.122406 
M164.629959,234.223831 
	C165.415985,232.593872 166.306473,230.971008 165.023865,229.158661 
	C160.249664,228.406174 158.323654,230.410599 158.846985,235.313080 
	C160.819687,235.658005 162.551041,236.042343 164.629959,234.223831 
M211.383591,232.826263 
	C214.166000,232.450974 214.772247,230.463745 214.565735,228.164276 
	C214.375351,226.044571 212.579254,226.395386 211.137711,226.387192 
	C208.666779,226.373123 208.429276,228.273514 207.976273,230.049973 
	C207.359970,232.466873 208.711960,232.922073 211.383591,232.826263 
z"/>
<path fill="#000000" opacity="1.000000" stroke="none" 
	d="
M386.169373,238.529053 
	C391.203308,240.513992 392.607025,243.418365 389.615326,247.861908 
	C384.541382,255.398102 384.569244,263.482788 387.446411,271.688446 
	C388.910095,275.862885 386.981598,277.147583 383.435608,278.383484 
	C372.703827,282.123871 364.271057,278.819061 357.168671,270.486694 
	C355.682770,271.363373 356.396881,272.849365 356.271912,273.998383 
	C356.008392,276.421082 355.000275,277.601685 352.415497,277.377472 
	C343.805878,276.630524 335.191437,275.934326 326.573151,275.295135 
	C323.452026,275.063690 323.897766,272.365051 323.060486,270.550476 
	C322.525574,269.391296 322.568604,267.727661 320.802094,267.646851 
	C319.123718,267.570099 318.521820,268.938232 318.215424,270.229828 
	C317.293549,274.115509 314.913269,274.879883 311.169922,274.480774 
	C305.588531,273.885651 299.865295,274.664398 293.549011,272.535919 
	C295.735443,266.602356 297.876007,260.767853 300.036896,254.940933 
	C300.962646,252.444565 302.010803,249.990738 302.856049,247.468231 
	C303.644043,245.116501 305.520203,242.807007 302.737976,240.295364 
	C301.806122,239.454132 302.749115,237.768600 303.219238,236.521881 
	C304.569916,232.939911 306.360748,229.451630 307.157135,225.749802 
	C308.359436,220.161285 311.702301,218.808365 316.618652,219.996216 
	C319.863464,220.780182 322.498840,220.670639 324.027802,215.828613 
	C325.406952,219.763733 327.378845,221.203568 330.578918,220.915787 
	C333.410797,220.661102 334.673004,222.550476 335.244873,225.118210 
	C335.856293,227.863693 336.621613,230.574921 337.313110,233.275177 
	C345.481689,232.062744 353.316620,233.575775 361.124054,234.412125 
	C365.992767,234.933685 370.548950,237.001450 375.778717,235.998062 
	C379.087524,235.363205 382.665436,236.729111 386.169373,238.529053 
M322.800293,227.789474 
	C320.815887,227.655762 318.818451,227.316574 316.850403,227.441208 
	C314.484070,227.591049 311.351990,232.390045 312.825500,233.590942 
	C316.566437,236.639923 313.827728,239.221512 312.872375,241.841110 
	C309.935577,249.893967 306.794403,257.872314 303.547913,266.362823 
	C307.318665,266.543365 311.124939,268.604919 312.415863,264.337708 
	C314.093292,258.792877 317.990051,259.701141 321.953400,259.849609 
	C325.961182,259.999817 328.971893,260.984863 329.527740,265.809875 
	C329.927765,269.282104 333.035919,268.882355 335.466034,268.578278 
	C338.704346,268.173065 337.537415,265.825012 337.093964,263.970734 
	C334.624176,253.642975 332.015015,243.347015 329.684723,232.988174 
	C328.901123,229.504959 327.226410,227.727753 322.800293,227.789474 
M381.497498,248.297913 
	C382.567108,246.094604 382.197845,244.600525 379.652374,243.727463 
	C374.763306,242.050583 368.158264,244.057251 364.375641,248.547012 
	C360.487335,253.162277 359.900696,260.074158 362.954712,265.288666 
	C365.883881,270.290009 371.750305,273.383972 376.653778,272.656128 
	C378.617035,272.364716 379.871124,271.524078 379.510193,269.459381 
	C379.219116,267.794067 379.301605,265.561157 376.509644,265.808624 
	C375.859100,265.866302 375.180450,265.827881 374.537201,265.710480 
	C370.267181,264.931335 367.358948,261.266510 367.786163,257.248627 
	C368.249359,252.892288 371.968903,249.795975 376.460266,250.263718 
	C378.304565,250.455795 380.105621,251.165497 381.497498,248.297913 
M358.812561,241.723434 
	C356.444794,240.624466 354.768250,242.684479 352.551483,243.135422 
	C352.065277,242.575089 351.648712,241.812958 351.006897,241.406235 
	C348.745667,239.973206 346.041870,239.478714 344.095337,241.296509 
	C342.438354,242.843979 340.765259,245.189133 343.678558,247.609863 
	C344.716217,248.472122 344.270538,250.129349 344.164825,251.437607 
	C343.804352,255.899200 343.427368,260.360291 342.973328,264.813110 
	C342.757721,266.927551 341.737946,269.272034 345.250946,269.621704 
	C348.649506,269.959991 349.524506,268.060883 349.682312,265.127350 
	C349.877869,261.491425 350.392334,257.873688 350.644379,254.239456 
	C350.852081,251.244522 352.064026,249.248428 355.169739,248.540848 
	C358.522278,247.777023 359.440613,245.291855 358.812561,241.723434 
z"/>
<path fill="#000000" opacity="1.000000" stroke="none" 
	d="
M146.270050,253.626160 
	C145.221375,258.871124 142.288116,261.850098 137.660736,263.507202 
	C134.391296,264.678040 132.338470,264.028229 132.134506,260.424194 
	C131.761047,253.824677 130.179062,247.296585 130.790375,240.680222 
	C139.774292,237.545975 146.268204,242.858765 146.270050,253.626160 
z"/>
<path fill="#000000" opacity="1.000000" stroke="none" 
	d="
M194.320923,254.922333 
	C193.570129,260.232697 189.595474,258.660156 186.940033,258.614594 
	C183.516235,258.555847 181.178146,256.319031 180.746063,252.686356 
	C180.324188,249.139450 181.778671,246.517166 185.129166,245.239716 
	C188.335251,244.017319 190.961349,245.204407 192.935318,247.832901 
	C194.408569,249.794617 194.406647,252.146988 194.320923,254.922333 
z"/>
<path fill="#000000" opacity="1.000000" stroke="none" 
	d="
M245.602417,246.699432 
	C249.764359,242.905899 253.679321,242.452423 256.869995,245.091583 
	C259.282043,247.086639 260.991577,255.114029 259.369659,257.596771 
	C257.500763,260.457520 254.515091,259.235016 252.077240,258.977570 
	C248.441330,258.593719 245.367966,256.936493 244.636887,252.824554 
	C244.283615,250.837570 244.400742,248.856934 245.602417,246.699432 
z"/>
<path fill="#000000" opacity="1.000000" stroke="none" 
	d="
M325.274475,246.986145 
	C325.446228,249.296631 326.946442,251.130493 325.462952,253.413193 
	C323.034882,253.779495 320.498932,253.448624 317.593170,252.833466 
	C317.915771,247.767365 320.399506,243.671494 322.087128,238.773941 
	C325.063721,241.015518 323.980347,244.277924 325.274475,246.986145 
z"/>
</svg>