<svg version="1.1" id="Layer_1" xmlns="http://www.w3.org/2000/svg" xmlns:xlink="http://www.w3.org/1999/xlink" x="0px" y="0px"
	 width="100%" viewBox="0 0 632 393" enable-background="new 0 0 632 393" xml:space="preserve">
<path fill="#141D38" opacity="1.000000" stroke="none" 
	d="
M460.000000,394.000000 
	C306.703918,394.000000 153.907837,394.000000 1.055874,394.000000 
	C1.055874,263.069183 1.055874,132.138367 1.055874,1.103765 
	C211.546097,1.103765 422.092255,1.103765 632.819214,1.103765 
	C632.819214,131.999786 632.819214,262.999878 632.819214,394.000000 
	C575.471619,394.000000 517.985840,394.000000 460.000000,394.000000 
M190.407928,318.440308 
	C193.065643,313.206970 195.723358,307.973602 198.447464,302.609558 
	C189.281372,301.035370 189.204208,301.056305 185.456100,308.629700 
	C184.584778,310.390259 183.873428,312.230042 182.662430,314.576385 
	C181.675720,316.681488 180.440033,318.708527 179.750488,320.906830 
	C177.921478,326.737854 175.534195,332.551514 174.845367,338.541870 
	C174.010559,345.801605 179.511887,349.224304 186.283981,346.179565 
	C189.095734,344.915436 191.654617,342.867828 193.953903,340.766602 
	C195.361618,339.480133 196.058090,337.415375 197.073975,335.700165 
	C197.633362,336.184082 198.192734,336.668030 198.752121,337.151947 
	C198.887314,338.441895 199.022507,339.731812 199.073151,341.778870 
	C200.763504,348.222260 205.378174,350.306946 211.544434,346.838623 
	C215.346863,344.699890 218.655197,341.682770 222.244202,339.016296 
	C224.599426,349.639160 230.113693,351.656708 238.790726,344.826202 
	C242.259232,342.095856 245.018295,338.464294 248.660034,335.757935 
	C249.992035,347.759064 252.295441,349.117035 263.631866,344.765228 
	C264.496643,344.433289 265.840851,344.561249 266.658661,345.018402 
	C274.561096,349.435791 288.600433,341.750488 289.762939,331.941925 
	C285.124573,335.370514 282.214233,341.291595 274.331177,341.005280 
	C275.222534,337.014130 275.483612,333.341217 276.855591,330.145203 
	C282.168365,317.769165 287.776337,305.518066 293.400696,293.278503 
	C295.448669,288.821747 297.849457,284.527130 300.154572,280.031158 
	C292.847717,278.320251 290.969421,278.595886 289.216217,282.252289 
	C280.388306,300.663544 269.847717,318.331238 264.770966,338.401276 
	C264.477905,339.559906 262.155304,340.798828 260.723724,340.866425 
	C259.773865,340.911255 257.865112,338.909790 257.893127,337.864777 
	C257.967316,335.098450 258.391327,332.142914 259.516510,329.640564 
	C262.923889,322.062622 266.723969,314.661011 270.384064,307.197083 
	C271.140747,305.653961 271.953644,304.138428 273.053467,302.002716 
	C270.173645,302.002716 268.175018,301.862396 266.206604,302.045990 
	C264.556244,302.199921 262.366882,303.593292 261.406128,302.952850 
	C256.204285,299.485260 251.611145,301.217804 246.255066,303.995056 
	C235.475708,309.690460 228.270569,318.424774 224.285141,329.880981 
	C222.026825,336.372620 215.080627,341.958740 208.816071,341.651550 
	C209.204926,338.733856 209.586990,335.867004 210.359268,332.403137 
	C214.980209,321.634033 219.601166,310.864929 224.736008,299.565582 
	C226.048172,296.033234 229.105347,297.103271 231.555679,297.226990 
	C236.379120,297.470581 237.999924,295.118805 237.872833,290.394592 
	C235.241226,290.394592 232.868988,290.394592 229.915451,290.394592 
	C231.391754,286.911194 232.632919,283.982544 233.901245,280.989868 
	C225.819031,279.272888 225.634186,279.423981 221.648926,285.947632 
	C220.884933,287.198242 219.369293,288.837738 218.190048,288.846191 
	C211.588074,288.893433 204.973404,288.187805 198.383316,288.392212 
	C195.527832,288.480743 192.651642,289.980774 189.958588,291.217865 
	C189.500183,291.428436 189.557526,294.470856 189.994995,294.644165 
	C192.759537,295.739471 195.685730,296.447083 198.590637,297.150085 
	C199.150421,297.285583 200.031036,297.025574 200.461441,296.624084 
	C205.716583,291.721619 211.248703,294.411407 216.394882,296.629181 
	C212.302216,305.759003 208.209549,314.888824 203.758575,324.617523 
	C202.852341,326.777252 201.946121,328.937012 200.414734,331.349304 
	C197.298294,334.031219 194.352997,336.960663 190.989853,339.285736 
	C189.418732,340.371826 187.039307,340.288727 185.026245,340.735565 
	C184.715134,338.743744 183.702759,336.542389 184.223572,334.799103 
	C185.826462,329.433655 188.015656,324.243317 190.407928,318.440308 
M412.835785,161.134262 
	C424.784119,148.314880 427.569733,133.282852 421.780121,117.199646 
	C415.886108,100.826340 403.119232,92.160141 385.347931,89.242279 
	C376.504089,88.411049 368.258057,90.414680 359.787842,93.913788 
	C359.567261,93.720917 359.346649,93.528046 359.310272,92.631187 
	C360.186249,90.661888 361.180725,88.735977 361.919983,86.716614 
	C369.957123,64.762192 358.421234,39.518501 336.352417,31.704313 
	C322.361786,27.015505 309.166046,28.169617 296.390991,37.284290 
	C276.716949,53.055000 274.454620,72.606064 284.763977,95.435326 
	C275.060394,90.550644 265.963470,87.701614 255.232208,89.690430 
	C234.505081,92.165436 218.738068,110.538765 218.787918,132.159042 
	C218.839249,154.425751 234.676422,171.993729 257.907196,174.748901 
	C267.235962,175.709183 275.858368,173.193298 285.443390,168.068939 
	C278.260986,181.317963 276.553558,193.761993 281.111206,206.386276 
	C285.753510,219.245178 294.728699,228.197327 308.497375,232.960785 
	C313.671173,233.542969 318.845001,234.125153 324.828674,234.790131 
	C330.095215,233.382492 335.769562,232.798294 340.558594,230.426498 
	C362.792633,219.415146 371.536072,192.643723 358.660095,169.198532 
	C358.804291,169.095734 358.948517,168.992920 359.778503,169.061768 
	C365.530518,170.885147 371.282562,172.708527 377.804840,174.757706 
	C391.293365,175.556946 403.087799,171.943192 412.835785,161.134262 
M69.944695,333.644562 
	C69.628548,335.757843 69.070862,337.868042 69.044060,339.984985 
	C68.978294,345.178436 70.433067,346.210571 75.413895,344.462921 
	C78.025253,343.546661 80.483826,342.194916 83.692932,340.889099 
	C96.146812,333.348114 106.736435,323.842010 113.709961,310.916473 
	C118.632797,301.791962 115.322533,293.894775 105.384003,291.027679 
	C100.828606,289.713501 95.809349,288.927429 91.134422,289.357666 
	C83.918114,290.021729 76.686867,291.508179 69.755661,293.612976 
	C67.958504,294.158691 67.253105,298.299652 66.046234,300.789215 
	C68.072182,300.999939 70.144318,301.592346 72.115891,301.353760 
	C79.694267,300.436615 87.212799,298.869812 94.809647,298.322327 
	C98.937004,298.024902 104.219803,297.756836 106.324791,302.393311 
	C108.411362,306.989227 105.026222,311.003693 101.909454,313.764099 
	C95.104485,319.791046 87.714287,325.157196 79.829903,330.908752 
	C76.579407,331.590149 73.328911,332.271545 69.860474,332.216339 
	C74.645538,322.512390 79.430603,312.808441 84.148598,303.240540 
	C78.061890,301.498322 73.079247,303.381104 70.026237,310.127563 
	C66.748367,317.370972 62.795425,324.326538 59.835678,331.688568 
	C58.402187,335.254211 58.090000,339.467010 58.130760,343.377808 
	C58.178413,347.949646 60.885574,349.822601 64.649979,349.616486 
	C66.578186,343.793427 68.396111,338.303436 69.944695,333.644562 
M161.688995,340.679840 
	C167.846893,328.106049 174.004791,315.532257 180.649704,301.964020 
	C175.866745,301.964020 172.204254,302.841675 169.228119,301.785431 
	C162.566650,299.421326 157.295212,301.690674 151.402313,305.376434 
	C141.499115,312.140717 134.610855,321.007385 131.819397,332.882385 
	C131.396454,334.681580 129.943085,336.238586 128.346130,338.263977 
	C127.808777,338.658234 127.320305,339.276764 126.725281,339.406464 
	C124.577011,339.874695 122.392876,340.178436 120.222282,340.544281 
	C120.109909,338.483582 119.394722,336.223480 119.997955,334.399445 
	C121.821442,328.885712 123.974335,323.459747 126.343826,318.153656 
	C128.686859,312.906769 131.450027,307.847504 134.109863,302.544464 
	C124.784592,301.172546 124.686287,301.125397 120.963242,308.888062 
	C118.156990,314.739227 115.404457,320.639343 113.088806,326.693909 
	C111.677002,330.385223 110.629646,334.370331 110.318840,338.294769 
	C109.748589,345.495087 115.147636,349.186279 121.751999,346.223328 
	C124.407326,345.032074 126.630951,342.878571 129.595581,341.018707 
	C131.073044,343.097778 132.550522,345.176849 133.951935,347.148895 
	C130.178925,348.771545 126.772942,349.786621 123.856316,351.592163 
	C119.041664,354.572754 118.737373,359.168365 122.625626,363.337982 
	C127.129066,368.167297 134.152069,369.940826 139.871017,366.304749 
	C144.489151,363.368530 148.102127,358.851410 152.701050,354.663300 
	C155.523666,350.145294 158.346298,345.627258 161.688995,340.679840 
M543.619263,327.745209 
	C548.235413,320.236572 552.282898,312.201752 561.320801,308.556122 
	C560.970032,311.817627 559.902161,314.715759 559.179016,317.697510 
	C557.795410,323.402618 560.201111,326.912811 565.441101,327.143372 
	C572.091125,327.435974 582.956421,318.864594 583.462402,311.225647 
	C581.585205,312.296997 580.855652,314.508118 579.404236,316.031494 
	C577.606018,317.918884 575.336792,319.479889 573.015808,320.693909 
	C571.902283,321.276367 569.757141,321.264130 568.903137,320.544037 
	C568.174927,319.930023 568.317993,317.846924 568.619019,316.538696 
	C569.250671,313.793274 570.717773,311.168243 570.937439,308.421509 
	C571.129333,306.022369 570.864258,302.452271 569.369141,301.360535 
	C567.762024,300.186981 564.346924,300.836487 561.979980,301.550201 
	C559.851990,302.191895 558.088318,304.018646 556.138184,305.282990 
	C555.153076,305.921661 554.110901,306.472412 552.299866,307.524536 
	C553.083862,305.165405 553.516235,303.864197 553.967346,302.506836 
	C544.478149,301.143951 544.470093,301.140320 540.901672,309.042908 
	C540.495544,309.942291 540.242676,310.910858 539.403809,312.320129 
	C535.580444,320.628418 531.676575,328.901093 527.978455,337.264740 
	C526.727173,340.094604 524.782776,342.145691 521.990540,340.731384 
	C520.709351,340.082458 520.201965,336.866302 520.279968,334.850616 
	C520.366821,332.604156 521.255493,330.272430 522.253418,328.198334 
	C525.856079,320.710388 529.656738,313.317810 533.368286,305.882080 
	C533.921875,304.772888 534.398682,303.625397 535.137207,301.996674 
	C532.509033,301.996674 530.508057,301.839478 528.545044,302.045258 
	C526.906982,302.217010 524.745972,303.696686 523.790283,303.082336 
	C516.465637,298.373901 510.853577,302.701691 504.381439,306.364441 
	C493.896240,313.828369 486.879974,323.570343 485.226685,336.554565 
	C484.795563,339.940582 483.311096,341.837921 480.296692,340.833099 
	C479.036285,340.412964 477.648926,337.031860 478.078979,335.486816 
	C479.581573,330.088806 481.572723,324.776886 483.904541,319.672729 
	C486.567749,313.843231 489.793945,308.270966 493.044128,302.074768 
	C489.952972,302.074768 487.489960,301.964722 485.043701,302.119751 
	C483.762939,302.200897 481.966461,303.453644 481.336639,302.967499 
	C477.601807,300.084778 473.876404,300.833221 469.355713,302.500977 
	C460.251526,306.223145 452.950470,312.398102 448.597595,321.004242 
	C445.623596,326.884186 443.803375,333.702881 443.094421,340.277344 
	C442.324615,347.415833 448.445068,350.933075 454.775757,347.358032 
	C458.739105,345.119873 461.984100,341.614624 465.571289,338.702454 
	C466.785675,337.716522 468.061066,336.805695 469.132233,336.706421 
	C469.093384,347.321472 472.574341,348.962097 485.358368,344.354095 
	C489.747314,349.437195 493.159180,350.148376 498.676575,346.519592 
	C501.544220,344.633545 503.966431,342.070251 507.125122,339.350098 
	C508.145355,338.226257 509.165619,337.102448 510.759796,335.346436 
	C511.572632,340.841492 511.098114,346.561279 517.730286,347.038940 
	C522.588440,347.388794 527.501404,347.103729 532.380371,346.887115 
	C533.024536,346.858521 533.763977,345.641083 534.201721,344.834442 
	C537.201843,339.305939 540.133240,333.740112 543.619263,327.745209 
M411.915436,339.008392 
	C411.721008,338.828857 411.526550,338.649292 411.729828,337.969788 
	C412.620056,337.058167 413.510284,336.146545 415.033752,334.998016 
	C421.545807,331.319489 428.144043,327.783752 434.544708,323.920624 
	C440.451691,320.355469 444.619141,315.194000 446.348511,308.446594 
	C446.673370,307.178986 445.778198,304.548279 444.804108,304.160950 
	C435.270630,300.370270 425.632446,300.216919 416.351196,304.941467 
	C412.666626,306.817047 411.909119,310.023132 414.243469,313.704865 
	C422.424377,309.862488 430.634949,308.779968 439.444550,312.060333 
	C435.908264,314.862671 432.173950,317.119446 428.274078,319.040070 
	C422.779236,321.746185 417.161804,324.203308 410.948883,326.943298 
	C407.298035,330.888031 403.672241,334.856567 399.976837,338.759094 
	C399.161346,339.620270 398.099121,340.247803 397.150543,340.982971 
	C396.428680,339.850159 395.248749,338.774414 395.098785,337.570312 
	C394.903229,336.000549 395.242126,334.215454 395.843750,332.721375 
	C398.193756,326.885529 400.583282,321.055084 403.260742,315.364990 
	C405.280548,311.072449 407.761261,306.996826 410.748535,301.519806 
	C406.569733,302.143341 403.637115,302.626312 400.689880,302.991425 
	C399.866547,303.093414 398.795837,303.140137 398.186432,302.714355 
	C394.010529,299.796783 390.014648,300.991119 385.296143,303.093933 
	C375.392090,307.692688 368.401001,315.182678 363.583405,324.866577 
	C362.872131,326.296417 361.880524,327.586792 360.984772,328.063751 
	C360.032684,323.175751 359.080597,318.287720 358.059509,313.045288 
	C359.734467,312.175476 362.364349,311.069244 364.718292,309.538727 
	C371.816223,304.923584 372.009796,296.167786 365.042175,291.346588 
	C362.902557,289.866119 360.334076,288.715240 357.797760,288.148376 
	C346.773987,285.684448 335.917511,286.942017 325.338623,290.550323 
	C320.600616,292.166382 319.718079,295.496857 322.338715,300.497620 
	C323.232605,300.209106 324.151154,299.873718 325.090851,299.615326 
	C334.943481,296.906067 344.914856,294.856415 355.140930,296.700684 
	C357.233551,297.078033 358.990143,299.318329 360.901611,300.699890 
	C359.436066,302.714050 358.298126,305.149414 356.408936,306.618988 
	C354.666718,307.974213 352.170563,308.542969 349.913818,309.016754 
	C344.875824,310.074463 339.779968,310.856842 334.802338,310.945221 
	C336.677643,307.766052 338.552948,304.586914 340.417145,301.426605 
	C333.181396,299.263916 328.301270,301.477966 325.206299,308.078918 
	C323.025055,312.731079 319.974670,317.010559 318.117645,321.770599 
	C316.023590,327.138245 314.311554,332.773560 313.390015,338.447784 
	C312.402618,344.527283 315.668182,347.744141 320.993927,347.489594 
	C321.811340,343.042633 322.272156,338.558624 323.517670,334.304321 
	C324.816711,329.867096 326.559570,325.484009 328.737915,321.414215 
	C329.721680,319.576263 332.230499,318.554535 334.965668,317.211914 
	C338.120026,317.151489 341.284271,316.904205 344.426636,317.070557 
	C350.479675,317.391022 353.274200,321.526917 351.600037,327.376282 
	C349.511047,334.675232 340.024536,340.605591 332.434723,339.351959 
	C330.896057,339.097778 329.361023,338.821533 327.681183,338.530701 
	C328.449402,344.696777 331.135834,348.090332 336.454468,347.800598 
	C341.067078,347.549316 346.092285,346.389862 350.000122,344.062073 
	C353.932037,341.719940 356.710358,337.441193 360.151611,334.895874 
	C360.147003,335.721710 360.190948,336.551178 360.129547,337.372772 
	C359.823273,341.469604 359.929108,345.533661 364.082611,347.778107 
	C368.180237,349.992340 371.960388,348.194031 375.062744,345.604980 
	C378.974701,342.340271 382.462311,338.567078 386.278259,335.947693 
	C386.572327,340.187531 385.784149,345.636047 391.220978,346.636902 
	C396.467468,347.602692 402.391907,347.859528 407.423035,346.389618 
	C417.274506,343.511444 426.808563,342.864014 436.595306,345.860840 
	C438.920471,339.683746 437.308502,336.443024 431.077972,336.714539 
	C424.854553,336.985779 418.687592,338.551697 411.915436,339.008392 
M129.271027,288.493073 
	C127.853287,290.086090 126.435555,291.679077 125.017807,293.272064 
	C126.725571,294.608887 128.248459,296.611725 130.178589,297.147552 
	C134.551163,298.361420 139.188644,295.998718 138.871780,293.021210 
	C138.378922,288.390076 134.586899,288.242920 131.020264,288.105133 
	C130.696136,288.092590 130.367081,288.207550 129.271027,288.493073 
z"/>
<path fill="#635CBC" opacity="1.000000" stroke="none" 
	d="
M246.951782,303.859436 
	C251.611145,301.217804 256.204285,299.485260 261.406128,302.952850 
	C262.366882,303.593292 264.556244,302.199921 266.206604,302.045990 
	C268.175018,301.862396 270.173645,302.002716 273.053467,302.002716 
	C271.953644,304.138428 271.140747,305.653961 270.384064,307.197083 
	C266.723969,314.661011 262.923889,322.062622 259.516510,329.640564 
	C258.391327,332.142914 257.967316,335.098450 257.893127,337.864777 
	C257.865112,338.909790 259.773865,340.911255 260.723724,340.866425 
	C262.155304,340.798828 264.477905,339.559906 264.770966,338.401276 
	C269.847717,318.331238 280.388306,300.663544 289.216217,282.252289 
	C290.969421,278.595886 292.847717,278.320251 300.154572,280.031158 
	C297.849457,284.527130 295.448669,288.821747 293.400696,293.278503 
	C287.776337,305.518066 282.168365,317.769165 276.855591,330.145203 
	C275.483612,333.341217 275.222534,337.014130 274.331177,341.005280 
	C282.214233,341.291595 285.124573,335.370514 289.762939,331.941925 
	C288.600433,341.750488 274.561096,349.435791 266.658661,345.018402 
	C265.840851,344.561249 264.496643,344.433289 263.631866,344.765228 
	C252.295441,349.117035 249.992035,347.759064 248.271820,335.149414 
	C247.562134,333.615692 247.240646,332.690491 247.036606,331.453674 
	C250.150116,326.011993 253.497528,321.045837 255.998993,315.684967 
	C257.316162,312.862183 257.155487,309.349823 257.662109,306.148804 
	C254.611862,307.388489 251.561630,308.628143 248.401001,309.436279 
	C247.844315,307.289673 247.398041,305.574554 246.951782,303.859436 
z"/>
<path fill="#755DB7" opacity="1.000000" stroke="none" 
	d="
M359.994171,334.011017 
	C356.710358,337.441193 353.932037,341.719940 350.000122,344.062073 
	C346.092285,346.389862 341.067078,347.549316 336.454468,347.800598 
	C331.135834,348.090332 328.449402,344.696777 327.681183,338.530701 
	C329.361023,338.821533 330.896057,339.097778 332.434723,339.351959 
	C340.024536,340.605591 349.511047,334.675232 351.600037,327.376282 
	C353.274200,321.526917 350.479675,317.391022 344.426636,317.070557 
	C341.284271,316.904205 338.120026,317.151489 334.509033,316.834778 
	C334.270844,314.888855 334.489288,313.320129 334.707703,311.751373 
	C339.779968,310.856842 344.875824,310.074463 349.913818,309.016754 
	C352.170563,308.542969 354.666718,307.974213 356.408936,306.618988 
	C358.298126,305.149414 359.436066,302.714050 360.901611,300.699890 
	C358.990143,299.318329 357.233551,297.078033 355.140930,296.700684 
	C344.914856,294.856415 334.943481,296.906067 325.090851,299.615326 
	C324.151154,299.873718 323.232605,300.209106 322.338715,300.497620 
	C319.718079,295.496857 320.600616,292.166382 325.338623,290.550323 
	C335.917511,286.942017 346.773987,285.684448 357.797760,288.148376 
	C360.334076,288.715240 362.902557,289.866119 365.042175,291.346588 
	C372.009796,296.167786 371.816223,304.923584 364.718292,309.538727 
	C362.364349,311.069244 359.734467,312.175476 358.059509,313.045288 
	C359.080597,318.287720 360.032684,323.175751 360.968079,328.873199 
	C360.632324,331.125427 360.313263,332.568237 359.994171,334.011017 
z"/>
<path fill="#935DAB" opacity="1.000000" stroke="none" 
	d="
M470.016754,302.339508 
	C473.876404,300.833221 477.601807,300.084778 481.336639,302.967499 
	C481.966461,303.453644 483.762939,302.200897 485.043701,302.119751 
	C487.489960,301.964722 489.952972,302.074768 493.044128,302.074768 
	C489.793945,308.270966 486.567749,313.843231 483.904541,319.672729 
	C481.572723,324.776886 479.581573,330.088806 478.078979,335.486816 
	C477.648926,337.031860 479.036285,340.412964 480.296692,340.833099 
	C483.311096,341.837921 484.795563,339.940582 485.226685,336.554565 
	C486.879974,323.570343 493.896240,313.828369 504.738831,306.686829 
	C505.572449,309.659180 506.048645,312.309204 506.381104,315.246887 
	C501.933014,323.123688 496.675720,330.389282 497.201263,341.395752 
	C500.572906,339.317932 502.725372,337.991455 505.087402,337.060852 
	C505.727905,338.242126 506.158875,339.027496 506.589844,339.812897 
	C503.966431,342.070251 501.544220,344.633545 498.676575,346.519592 
	C493.159180,350.148376 489.747314,349.437195 485.358368,344.354095 
	C472.574341,348.962097 469.093384,347.321472 469.311279,335.947815 
	C469.320374,333.102386 469.150421,331.015564 469.079651,328.601746 
	C472.223907,322.227325 475.554779,316.301788 478.204895,310.085999 
	C479.751984,306.457367 478.128662,305.059998 474.355682,306.099457 
	C473.250580,306.403900 472.226837,307.003662 471.045227,307.110352 
	C470.622040,305.281616 470.319397,303.810547 470.016754,302.339508 
z"/>
<path fill="#805CB2" opacity="1.000000" stroke="none" 
	d="
M386.005127,303.011871 
	C390.014648,300.991119 394.010529,299.796783 398.186432,302.714355 
	C398.795837,303.140137 399.866547,303.093414 400.689880,302.991425 
	C403.637115,302.626312 406.569733,302.143341 410.748535,301.519806 
	C407.761261,306.996826 405.280548,311.072449 403.260742,315.364990 
	C400.583282,321.055084 398.193756,326.885529 395.843750,332.721375 
	C395.242126,334.215454 394.903229,336.000549 395.098785,337.570312 
	C395.248749,338.774414 396.428680,339.850159 397.150543,340.982971 
	C398.099121,340.247803 399.161346,339.620270 399.976837,338.759094 
	C403.672241,334.856567 407.298035,330.888031 411.448914,327.222748 
	C412.766144,330.079773 413.583344,332.657349 414.400513,335.234924 
	C413.510284,336.146545 412.620056,337.058167 411.388184,338.457245 
	C411.529663,339.146484 412.012787,339.348297 412.495880,339.550079 
	C418.687592,338.551697 424.854553,336.985779 431.077972,336.714539 
	C437.308502,336.443024 438.920471,339.683746 436.595215,345.857727 
	C426.808563,342.864014 417.274506,343.511444 407.423035,346.389618 
	C402.391907,347.859528 396.467468,347.602692 391.220978,346.636902 
	C385.784149,345.636047 386.572327,340.187531 386.141510,335.176147 
	C385.646759,333.200684 385.288757,331.996765 385.039124,330.475739 
	C388.018707,325.181183 391.185822,320.343842 393.637054,315.167480 
	C394.872070,312.559479 394.808472,309.336548 395.332123,306.391663 
	C392.592865,306.942474 389.853638,307.493286 386.972351,307.704224 
	C386.555237,305.913513 386.280182,304.462677 386.005127,303.011871 
z"/>
<path fill="#9C5DA9" opacity="1.000000" stroke="none" 
	d="
M506.524841,314.959229 
	C506.048645,312.309204 505.572449,309.659180 505.054016,306.580353 
	C510.853577,302.701691 516.465637,298.373901 523.790283,303.082336 
	C524.745972,303.696686 526.906982,302.217010 528.545044,302.045258 
	C530.508057,301.839478 532.509033,301.996674 535.137207,301.996674 
	C534.398682,303.625397 533.921875,304.772888 533.368286,305.882080 
	C529.656738,313.317810 525.856079,320.710388 522.253418,328.198334 
	C521.255493,330.272430 520.366821,332.604156 520.279968,334.850616 
	C520.201965,336.866302 520.709351,340.082458 521.990540,340.731384 
	C524.782776,342.145691 526.727173,340.094604 527.978455,337.264740 
	C531.676575,328.901093 535.580444,320.628418 539.786133,312.487915 
	C541.141296,317.832550 542.114075,323.009430 543.086792,328.186279 
	C540.133240,333.740112 537.201843,339.305939 534.201721,344.834442 
	C533.763977,345.641083 533.024536,346.858521 532.380371,346.887115 
	C527.501404,347.103729 522.588440,347.388794 517.730286,347.038940 
	C511.098114,346.561279 511.572632,340.841492 510.759796,335.346436 
	C509.165619,337.102448 508.145355,338.226257 506.857483,339.581482 
	C506.158875,339.027496 505.727905,338.242126 505.247070,336.777557 
	C510.267578,327.582703 515.404907,319.105316 520.321472,310.501770 
	C520.919617,309.455048 520.330017,307.729645 520.290833,306.318787 
	C518.709900,306.370117 516.647644,305.801910 515.636780,306.587128 
	C512.390442,309.108704 509.532593,312.130432 506.524841,314.959229 
z"/>
<path fill="#475BC7" opacity="1.000000" stroke="none" 
	d="
M152.161011,355.035583 
	C148.102127,358.851410 144.489151,363.368530 139.871017,366.304749 
	C134.152069,369.940826 127.129066,368.167297 122.625626,363.337982 
	C118.737373,359.168365 119.041664,354.572754 123.856316,351.592163 
	C126.772942,349.786621 130.178925,348.771545 133.951935,347.148895 
	C132.550522,345.176849 131.073044,343.097778 129.312485,340.683960 
	C129.008362,339.535339 128.987335,338.721466 128.966339,337.907623 
	C129.943085,336.238586 131.396454,334.681580 131.819397,332.882385 
	C134.610855,321.007385 141.499115,312.140717 151.736694,305.656555 
	C152.826843,307.998260 153.582596,310.059784 154.193604,312.439789 
	C148.858414,321.009033 142.754898,328.923889 143.220566,339.255524 
	C143.706436,339.609802 144.192307,339.964081 144.678162,340.318359 
	C147.114014,338.523376 149.549866,336.728424 151.989105,335.320312 
	C151.999283,336.480957 152.006104,337.254700 151.745773,338.226868 
	C143.963974,344.927002 143.858490,346.815247 150.649796,353.774841 
	C151.105545,354.241913 151.655090,354.617462 152.161011,355.035583 
M136.850266,362.654999 
	C139.035278,360.160339 141.220291,357.665710 143.405319,355.171082 
	C143.101746,354.718658 142.798157,354.266266 142.494583,353.813873 
	C139.478973,354.315460 136.367111,354.508057 133.475845,355.408783 
	C130.782761,356.247742 127.144798,357.167511 128.822189,361.385040 
	C130.327057,365.168823 133.251572,364.649139 136.850266,362.654999 
z"/>
<path fill="#3D5BCA" opacity="1.000000" stroke="none" 
	d="
M80.563179,330.793304 
	C87.714287,325.157196 95.104485,319.791046 101.909454,313.764099 
	C105.026222,311.003693 108.411362,306.989227 106.324791,302.393311 
	C104.219803,297.756836 98.937004,298.024902 94.809647,298.322327 
	C87.212799,298.869812 79.694267,300.436615 72.115891,301.353760 
	C70.144318,301.592346 68.072182,300.999939 66.046234,300.789215 
	C67.253105,298.299652 67.958504,294.158691 69.755661,293.612976 
	C76.686867,291.508179 83.918114,290.021729 91.134422,289.357666 
	C95.809349,288.927429 100.828606,289.713501 105.384003,291.027679 
	C115.322533,293.894775 118.632797,301.791962 113.709961,310.916473 
	C106.736435,323.842010 96.146812,333.348114 83.350235,340.516846 
	C82.192757,337.027496 81.377968,333.910400 80.563179,330.793304 
z"/>
<path fill="#5A5CBF" opacity="1.000000" stroke="none" 
	d="
M246.603424,303.927246 
	C247.398041,305.574554 247.844315,307.289673 248.212738,309.691956 
	C247.492752,311.138855 246.669449,311.807892 246.236832,312.672424 
	C242.408890,320.322113 238.564072,327.966583 234.975067,335.728577 
	C234.501373,336.753052 235.437271,338.429291 235.720337,339.803650 
	C237.098312,339.448151 238.796585,339.481232 239.791641,338.661163 
	C242.334595,336.565277 244.564209,334.089233 246.919159,331.765259 
	C247.240646,332.690491 247.562134,333.615692 247.991943,334.891937 
	C245.018295,338.464294 242.259232,342.095856 238.790726,344.826202 
	C230.113693,351.656708 224.599426,349.639160 222.244202,339.016296 
	C218.655197,341.682770 215.346863,344.699890 211.544434,346.838623 
	C205.378174,350.306946 200.763504,348.222260 199.400635,341.253662 
	C204.593430,338.121002 200.787766,334.332550 201.039917,331.096771 
	C201.946121,328.937012 202.852341,326.777252 204.172852,324.562653 
	C206.381104,327.338562 208.175079,330.169373 209.969055,333.000153 
	C209.586990,335.867004 209.204926,338.733856 208.816071,341.651550 
	C215.080627,341.958740 222.026825,336.372620 224.285141,329.880981 
	C228.270569,318.424774 235.475708,309.690460 246.603424,303.927246 
z"/>
<path fill="#595BBC" opacity="1.000000" stroke="none" 
	d="
M257.006256,174.554169 
	C234.676422,171.993729 218.839249,154.425751 218.787918,132.159042 
	C218.738068,110.538765 234.505081,92.165436 255.616776,90.077560 
	C256.021515,91.718033 256.041687,92.971359 255.723846,94.377472 
	C228.234467,99.408562 215.497192,129.154785 229.205566,151.723373 
	C235.521439,162.121429 245.157990,167.825928 257.014832,170.337433 
	C257.009766,171.998795 257.008026,173.276474 257.006256,174.554169 
z"/>
<path fill="#735AB2" opacity="1.000000" stroke="none" 
	d="
M377.034576,174.531891 
	C371.282562,172.708527 365.530518,170.885147 359.307800,168.799774 
	C358.632996,168.859589 358.428925,169.181396 358.224854,169.503204 
	C371.536072,192.643723 362.792633,219.415146 340.558594,230.426498 
	C335.769562,232.798294 330.095215,233.382492 324.421600,234.359558 
	C324.014374,232.630753 324.014191,231.332535 324.406708,229.961792 
	C345.365997,226.649368 358.178040,213.315277 359.344604,193.641876 
	C359.895721,184.347778 357.233795,175.926483 351.287750,168.672318 
	C349.438995,166.416855 349.700134,164.569168 351.740967,162.618439 
	C353.519409,160.918457 354.912170,159.806168 357.740753,161.256470 
	C364.003815,164.467712 370.556854,167.113419 376.995544,170.443756 
	C377.011169,172.109116 377.022858,173.320511 377.034576,174.531891 
z"/>
<path fill="#8C5DAE" opacity="1.000000" stroke="none" 
	d="
M469.686218,302.420227 
	C470.319397,303.810547 470.622040,305.281616 470.857697,307.367706 
	C461.823639,316.743225 456.166595,327.070496 454.211029,340.561157 
	C462.408691,338.983734 464.892242,332.981384 468.980469,328.928772 
	C469.150421,331.015564 469.320374,333.102386 469.399445,335.524872 
	C468.061066,336.805695 466.785675,337.716522 465.571289,338.702454 
	C461.984100,341.614624 458.739105,345.119873 454.775757,347.358032 
	C448.445068,350.933075 442.324615,347.415833 443.094421,340.277344 
	C443.803375,333.702881 445.623596,326.884186 448.597595,321.004242 
	C452.950470,312.398102 460.251526,306.223145 469.686218,302.420227 
z"/>
<path fill="#A45EA6" opacity="1.000000" stroke="none" 
	d="
M543.353027,327.965759 
	C542.114075,323.009430 541.141296,317.832550 540.043640,312.251526 
	C540.242676,310.910858 540.495544,309.942291 540.901672,309.042908 
	C544.470093,301.140320 544.478149,301.143951 553.967346,302.506836 
	C553.516235,303.864197 553.083862,305.165405 552.299866,307.524536 
	C554.110901,306.472412 555.153076,305.921661 556.138184,305.282990 
	C558.088318,304.018646 559.851990,302.191895 561.979980,301.550201 
	C564.346924,300.836487 567.762024,300.186981 569.369141,301.360535 
	C570.864258,302.452271 571.129333,306.022369 570.937439,308.421509 
	C570.717773,311.168243 569.250671,313.793274 568.619019,316.538696 
	C568.317993,317.846924 568.174927,319.930023 568.903137,320.544037 
	C569.757141,321.264130 571.902283,321.276367 573.015808,320.693909 
	C575.336792,319.479889 577.606018,317.918884 579.404236,316.031494 
	C580.855652,314.508118 581.585205,312.296997 583.462402,311.225647 
	C582.956421,318.864594 572.091125,327.435974 565.441101,327.143372 
	C560.201111,326.912811 557.795410,323.402618 559.179016,317.697510 
	C559.902161,314.715759 560.970032,311.817627 561.320801,308.556122 
	C552.282898,312.201752 548.235413,320.236572 543.353027,327.965759 
z"/>
<path fill="#755BB3" opacity="1.000000" stroke="none" 
	d="
M336.989014,32.084702 
	C358.421234,39.518501 369.957123,64.762192 361.919983,86.716614 
	C361.180725,88.735977 360.186249,90.661888 359.037079,93.162361 
	C358.667603,94.217010 358.571320,94.740486 358.475037,95.263962 
	C359.133179,95.006874 359.791321,94.749786 360.449463,94.492706 
	C368.258057,90.414680 376.504089,88.411049 385.727722,89.796410 
	C386.069794,91.572235 386.032043,92.793938 385.546967,94.065018 
	C375.123138,93.659470 365.963165,95.914207 358.111542,102.366463 
	C355.803955,104.262779 354.029236,103.663780 352.067932,101.730911 
	C349.978851,99.672157 349.415283,97.936234 351.315125,95.278297 
	C353.515350,92.200089 355.609589,88.893311 356.953156,85.381020 
	C364.351471,66.040878 356.010529,47.014885 335.902405,36.210060 
	C336.330414,34.584621 336.659729,33.334663 336.989014,32.084702 
z"/>
<path fill="#655BB9" opacity="1.000000" stroke="none" 
	d="
M257.456726,174.651535 
	C257.008026,173.276474 257.009766,171.998795 257.462708,170.303101 
	C267.348633,170.349899 276.125153,168.394409 283.759247,162.583206 
	C286.199860,160.725372 288.123138,159.404877 291.011627,162.250778 
	C294.002136,165.197189 292.756683,167.170227 290.868042,169.933685 
	C281.876465,183.090240 281.195709,196.861526 288.720703,210.882507 
	C292.620209,218.148254 298.970367,222.988754 306.123413,227.354004 
	C306.789185,229.352127 307.328003,231.004440 307.866821,232.656738 
	C294.728699,228.197327 285.753510,219.245178 281.111206,206.386276 
	C276.553558,193.761993 278.260986,181.317963 285.443390,168.068939 
	C275.858368,173.193298 267.235962,175.709183 257.456726,174.651535 
z"/>
<path fill="#7B5EB7" opacity="1.000000" stroke="none" 
	d="
M384.930756,330.792847 
	C385.288757,331.996765 385.646759,333.200684 386.068909,334.708923 
	C382.462311,338.567078 378.974701,342.340271 375.062744,345.604980 
	C371.960388,348.194031 368.180237,349.992340 364.082611,347.778107 
	C359.929108,345.533661 359.823273,341.469604 360.129547,337.372772 
	C360.190948,336.551178 360.147003,335.721710 360.072876,334.453430 
	C360.313263,332.568237 360.632324,331.125427 360.985016,329.312195 
	C361.880524,327.586792 362.872131,326.296417 363.583405,324.866577 
	C368.401001,315.182678 375.392090,307.692688 385.650635,303.052917 
	C386.280182,304.462677 386.555237,305.913513 386.838989,308.015533 
	C379.305573,317.749023 372.787964,327.295563 371.843903,340.251160 
	C378.948547,339.682068 381.133148,334.144104 384.930756,330.792847 
z"/>
<path fill="#865CB0" opacity="1.000000" stroke="none" 
	d="
M414.717133,335.116455 
	C413.583344,332.657349 412.766144,330.079773 411.772858,327.134521 
	C417.161804,324.203308 422.779236,321.746185 428.274078,319.040070 
	C432.173950,317.119446 435.908264,314.862671 439.444550,312.060333 
	C430.634949,308.779968 422.424377,309.862488 414.243469,313.704865 
	C411.909119,310.023132 412.666626,306.817047 416.351196,304.941467 
	C425.632446,300.216919 435.270630,300.370270 444.804108,304.160950 
	C445.778198,304.548279 446.673370,307.178986 446.348511,308.446594 
	C444.619141,315.194000 440.451691,320.355469 434.544708,323.920624 
	C428.144043,327.783752 421.545807,331.319489 414.717133,335.116455 
z"/>
<path fill="#655BB9" opacity="1.000000" stroke="none" 
	d="
M256.061859,94.224693 
	C256.041687,92.971359 256.021515,91.718033 255.999573,90.089478 
	C265.963470,87.701614 275.060394,90.550644 284.763977,95.435326 
	C274.454620,72.606064 276.716949,53.055000 296.758575,37.524834 
	C297.418243,39.169735 297.710327,40.574100 297.815796,42.255001 
	C281.040619,58.517090 279.001312,76.375610 291.807373,95.218971 
	C293.638550,97.913422 293.129669,99.578346 291.042664,101.642960 
	C289.086823,103.577820 287.396454,104.217445 285.049225,102.305191 
	C276.579498,95.405121 266.705536,93.400398 256.061859,94.224693 
z"/>
<path fill="#4D5CC6" opacity="1.000000" stroke="none" 
	d="
M152.012909,338.028442 
	C152.006104,337.254700 151.999283,336.480957 152.162079,335.038086 
	C156.973709,326.585419 161.718903,318.859802 166.155289,310.960693 
	C166.887100,309.657684 166.265701,307.594666 166.269669,305.882874 
	C164.420471,306.132385 162.273758,305.875427 160.789978,306.746979 
	C158.408768,308.145752 156.466263,310.291351 154.338348,312.121338 
	C153.582596,310.059784 152.826843,307.998260 152.054688,305.554504 
	C157.295212,301.690674 162.566650,299.421326 169.228119,301.785431 
	C172.204254,302.841675 175.866745,301.964020 180.649704,301.964020 
	C174.004791,315.532257 167.846893,328.106049 161.086151,340.752747 
	C157.659836,339.893250 154.836380,338.960846 152.012909,338.028442 
z"/>
<path fill="#6F5CB8" opacity="1.000000" stroke="none" 
	d="
M334.755005,311.348297 
	C334.489288,313.320129 334.270844,314.888855 334.049927,316.810059 
	C332.230499,318.554535 329.721680,319.576263 328.737915,321.414215 
	C326.559570,325.484009 324.816711,329.867096 323.517670,334.304321 
	C322.272156,338.558624 321.811340,343.042633 320.993927,347.489594 
	C315.668182,347.744141 312.402618,344.527283 313.390015,338.447784 
	C314.311554,332.773560 316.023590,327.138245 318.117645,321.770599 
	C319.974670,317.010559 323.025055,312.731079 325.206299,308.078918 
	C328.301270,301.477966 333.181396,299.263916 340.417145,301.426605 
	C338.552948,304.586914 336.677643,307.766052 334.755005,311.348297 
z"/>
<path fill="#425BC8" opacity="1.000000" stroke="none" 
	d="
M128.656219,338.085815 
	C128.987335,338.721466 129.008362,339.535339 129.040222,340.756104 
	C126.630951,342.878571 124.407326,345.032074 121.751999,346.223328 
	C115.147636,349.186279 109.748589,345.495087 110.318840,338.294769 
	C110.629646,334.370331 111.677002,330.385223 113.088806,326.693909 
	C115.404457,320.639343 118.156990,314.739227 120.963242,308.888062 
	C124.686287,301.125397 124.784592,301.172546 134.109863,302.544464 
	C131.450027,307.847504 128.686859,312.906769 126.343826,318.153656 
	C123.974335,323.459747 121.821442,328.885712 119.997955,334.399445 
	C119.394722,336.223480 120.109909,338.483582 120.222282,340.544281 
	C122.392876,340.178436 124.577011,339.874695 126.725281,339.406464 
	C127.320305,339.276764 127.808777,338.658234 128.656219,338.085815 
z"/>
<path fill="#375CCD" opacity="1.000000" stroke="none" 
	d="
M70.214035,332.813416 
	C68.396111,338.303436 66.578186,343.793427 64.649979,349.616486 
	C60.885574,349.822601 58.178413,347.949646 58.130760,343.377808 
	C58.090000,339.467010 58.402187,335.254211 59.835678,331.688568 
	C62.795425,324.326538 66.748367,317.370972 70.026237,310.127563 
	C73.079247,303.381104 78.061890,301.498322 84.148598,303.240540 
	C79.430603,312.808441 74.645538,322.512390 70.000633,332.550171 
	C70.140793,332.883972 70.214043,332.813416 70.214035,332.813416 
z"/>
<path fill="#5A5CBF" opacity="1.000000" stroke="none" 
	d="
M216.744400,295.944977 
	C211.248703,294.411407 205.716583,291.721619 200.461441,296.624084 
	C200.031036,297.025574 199.150421,297.285583 198.590637,297.150085 
	C195.685730,296.447083 192.759537,295.739471 189.994995,294.644165 
	C189.557526,294.470856 189.500183,291.428436 189.958588,291.217865 
	C192.651642,289.980774 195.527832,288.480743 198.383316,288.392212 
	C204.973404,288.187805 211.588074,288.893433 218.190048,288.846191 
	C219.369293,288.837738 220.884933,287.198242 221.648926,285.947632 
	C225.634186,279.423981 225.819031,279.272888 233.901245,280.989868 
	C232.632919,283.982544 231.391754,286.911194 229.915451,290.394592 
	C232.868988,290.394592 235.241226,290.394592 237.872833,290.394592 
	C237.999924,295.118805 236.379120,297.470581 231.555679,297.226990 
	C229.105347,297.103271 226.048172,296.033234 224.169525,299.678864 
	C221.316818,298.509766 219.030609,297.227386 216.744400,295.944977 
z"/>
<path fill="#805CB2" opacity="1.000000" stroke="none" 
	d="
M385.994293,94.015633 
	C386.032043,92.793938 386.069794,91.572235 386.128326,89.892540 
	C403.119232,92.160141 415.886108,100.826340 421.780121,117.199646 
	C427.569733,133.282852 424.784119,148.314880 412.365326,161.007980 
	C411.152771,159.888901 410.410675,158.896118 409.828644,157.594330 
	C420.843140,143.314453 422.580780,126.768570 414.478058,113.067406 
	C408.050659,102.199150 398.163330,96.368378 385.994293,94.015633 
z"/>
<path fill="#4C57B9" opacity="1.000000" stroke="none" 
	d="
M200.727325,331.223022 
	C200.787766,334.332550 204.593430,338.121002 199.442902,340.875122 
	C199.022507,339.731812 198.887314,338.441895 198.752121,337.151947 
	C198.192734,336.668030 197.633362,336.184082 197.073975,335.700165 
	C196.058090,337.415375 195.361618,339.480133 193.953903,340.766602 
	C191.654617,342.867828 189.095734,344.915436 186.283981,346.179565 
	C179.511887,349.224304 174.010559,345.801605 174.845367,338.541870 
	C175.534195,332.551514 177.921478,326.737854 179.750488,320.906830 
	C180.440033,318.708527 181.675720,316.681488 183.131134,314.503601 
	C185.725586,315.948822 187.851318,317.466888 189.977036,318.984955 
	C188.015656,324.243317 185.826462,329.433655 184.223572,334.799103 
	C183.702759,336.542389 184.715134,338.743744 185.026245,340.735565 
	C187.039307,340.288727 189.418732,340.371826 190.989853,339.285736 
	C194.352997,336.960663 197.298294,334.031219 200.727325,331.223022 
z"/>
<path fill="#5359BA" opacity="1.000000" stroke="none" 
	d="
M216.569641,296.287079 
	C219.030609,297.227386 221.316818,298.509766 223.912567,299.943970 
	C219.601166,310.864929 214.980209,321.634033 210.164154,332.701660 
	C208.175079,330.169373 206.381104,327.338562 204.352005,324.263214 
	C208.209549,314.888824 212.302216,305.759003 216.569641,296.287079 
z"/>
<path fill="#6F5CB8" opacity="1.000000" stroke="none" 
	d="
M298.002411,41.978462 
	C297.710327,40.574100 297.418243,39.169735 297.074127,37.410168 
	C309.166046,28.169617 322.361786,27.015505 336.670715,31.894508 
	C336.659729,33.334663 336.330414,34.584621 335.506744,36.106602 
	C321.711639,31.873587 309.399475,33.902031 298.002411,41.978462 
z"/>
<path fill="#7857A9" opacity="1.000000" stroke="none" 
	d="
M409.668549,157.903336 
	C410.410675,158.896118 411.152771,159.888901 412.082886,161.204285 
	C403.087799,171.943192 391.293365,175.556946 377.419708,174.644806 
	C377.022858,173.320511 377.011169,172.109116 377.445557,170.402802 
	C390.325745,170.781799 400.770203,166.388885 409.668549,157.903336 
z"/>
<path fill="#4C57B9" opacity="1.000000" stroke="none" 
	d="
M151.745773,338.226868 
	C154.836380,338.960846 157.659836,339.893250 160.826111,340.967438 
	C158.346298,345.627258 155.523666,350.145294 152.431030,354.849426 
	C151.655090,354.617462 151.105545,354.241913 150.649796,353.774841 
	C143.858490,346.815247 143.963974,344.927002 151.745773,338.226868 
z"/>
<path fill="#375CCD" opacity="1.000000" stroke="none" 
	d="
M80.196541,330.851013 
	C81.377968,333.910400 82.192757,337.027496 83.009468,340.592224 
	C80.483826,342.194916 78.025253,343.546661 75.413895,344.462921 
	C70.433067,346.210571 68.978294,345.178436 69.044060,339.984985 
	C69.070862,337.868042 69.628548,335.757843 70.079369,333.229004 
	C70.214043,332.813416 70.140793,332.883972 70.109604,332.918457 
	C73.328911,332.271545 76.579407,331.590149 80.196541,330.851013 
z"/>
<path fill="#4D5CC6" opacity="1.000000" stroke="none" 
	d="
M190.192474,318.712646 
	C187.851318,317.466888 185.725586,315.948822 183.344162,314.232056 
	C183.873428,312.230042 184.584778,310.390259 185.456100,308.629700 
	C189.204208,301.056305 189.281372,301.035370 198.447464,302.609558 
	C195.723358,307.973602 193.065643,313.206970 190.192474,318.712646 
z"/>
<path fill="#475BC7" opacity="1.000000" stroke="none" 
	d="
M129.655670,288.378174 
	C130.367081,288.207550 130.696136,288.092590 131.020264,288.105133 
	C134.586899,288.242920 138.378922,288.390076 138.871780,293.021210 
	C139.188644,295.998718 134.551163,298.361420 130.178589,297.147552 
	C128.248459,296.611725 126.725571,294.608887 125.017815,293.272064 
	C126.435555,291.679077 127.853287,290.086090 129.655670,288.378174 
z"/>
<path fill="#6D59B3" opacity="1.000000" stroke="none" 
	d="
M308.182098,232.808762 
	C307.328003,231.004440 306.789185,229.352127 306.505920,227.410400 
	C312.512329,228.092087 318.263184,229.063187 324.014038,230.034302 
	C324.014191,231.332535 324.014374,232.630753 324.016663,234.318176 
	C318.845001,234.125153 313.671173,233.542969 308.182098,232.808762 
z"/>
<path fill="#171F3C" opacity="1.000000" stroke="none" 
	d="
M247.036606,331.453674 
	C244.564209,334.089233 242.334595,336.565277 239.791641,338.661163 
	C238.796585,339.481232 237.098312,339.448151 235.720337,339.803650 
	C235.437271,338.429291 234.501373,336.753052 234.975067,335.728577 
	C238.564072,327.966583 242.408890,320.322113 246.236832,312.672424 
	C246.669449,311.807892 247.492752,311.138855 248.323151,310.123474 
	C251.561630,308.628143 254.611862,307.388489 257.662109,306.148804 
	C257.155487,309.349823 257.316162,312.862183 255.998993,315.684967 
	C253.497528,321.045837 250.150116,326.011993 247.036606,331.453674 
z"/>
<path fill="#171F3C" opacity="1.000000" stroke="none" 
	d="
M506.381134,315.246887 
	C509.532593,312.130432 512.390442,309.108704 515.636780,306.587128 
	C516.647644,305.801910 518.709900,306.370117 520.290833,306.318787 
	C520.330017,307.729645 520.919617,309.455048 520.321472,310.501770 
	C515.404907,319.105316 510.267578,327.582703 505.037537,336.381653 
	C502.725372,337.991455 500.572906,339.317932 497.201263,341.395752 
	C496.675720,330.389282 501.933014,323.123688 506.381134,315.246887 
z"/>
<path fill="#171F3C" opacity="1.000000" stroke="none" 
	d="
M469.079651,328.601746 
	C464.892242,332.981384 462.408691,338.983734 454.211029,340.561157 
	C456.166595,327.070496 461.823639,316.743225 470.978210,307.725403 
	C472.226837,307.003662 473.250580,306.403900 474.355682,306.099457 
	C478.128662,305.059998 479.751984,306.457367 478.204895,310.085999 
	C475.554779,316.301788 472.223907,322.227325 469.079651,328.601746 
z"/>
<path fill="#171F3C" opacity="1.000000" stroke="none" 
	d="
M385.039124,330.475739 
	C381.133148,334.144104 378.948547,339.682068 371.843903,340.251160 
	C372.787964,327.295563 379.305573,317.749023 386.981018,308.355408 
	C389.853638,307.493286 392.592865,306.942474 395.332123,306.391663 
	C394.808472,309.336548 394.872070,312.559479 393.637054,315.167480 
	C391.185822,320.343842 388.018707,325.181183 385.039124,330.475739 
z"/>
<path fill="#141D38" opacity="1.000000" stroke="none" 
	d="
M412.205658,339.279236 
	C412.012787,339.348297 411.529663,339.146484 411.189331,338.707214 
	C411.526550,338.649292 411.721008,338.828857 412.205658,339.279236 
z"/>
<path fill="#171F3C" opacity="1.000000" stroke="none" 
	d="
M154.193604,312.439789 
	C156.466263,310.291351 158.408768,308.145752 160.789978,306.746979 
	C162.273758,305.875427 164.420471,306.132385 166.269669,305.882874 
	C166.265701,307.594666 166.887100,309.657684 166.155289,310.960693 
	C161.718903,318.859802 156.973709,326.585419 152.158691,334.651215 
	C149.549866,336.728424 147.114014,338.523376 144.678162,340.318359 
	C144.192307,339.964081 143.706436,339.609802 143.220566,339.255524 
	C142.754898,328.923889 148.858414,321.009033 154.193604,312.439789 
z"/>
<path fill="#171F3C" opacity="1.000000" stroke="none" 
	d="
M136.529419,362.859314 
	C133.251572,364.649139 130.327057,365.168823 128.822189,361.385040 
	C127.144798,357.167511 130.782761,356.247742 133.475845,355.408783 
	C136.367111,354.508057 139.478973,354.315460 142.494583,353.813873 
	C142.798157,354.266266 143.101746,354.718658 143.405319,355.171082 
	C141.220291,357.665710 139.035278,360.160339 136.529419,362.859314 
z"/>
<path fill="#161E3B" opacity="1.000000" stroke="none" 
	d="
M324.406708,229.961777 
	C318.263184,229.063187 312.512329,228.092087 306.378967,227.064590 
	C298.970367,222.988754 292.620209,218.148254 288.720703,210.882507 
	C281.195709,196.861526 281.876465,183.090240 290.868042,169.933685 
	C292.756683,167.170227 294.002136,165.197189 291.011627,162.250778 
	C288.123138,159.404877 286.199860,160.725372 283.759247,162.583206 
	C276.125153,168.394409 267.348633,170.349899 257.466003,169.919434 
	C245.157990,167.825928 235.521439,162.121429 229.205566,151.723373 
	C215.497192,129.154785 228.234467,99.408562 255.723846,94.377472 
	C266.705536,93.400398 276.579498,95.405121 285.049225,102.305191 
	C287.396454,104.217445 289.086823,103.577820 291.042664,101.642960 
	C293.129669,99.578346 293.638550,97.913422 291.807373,95.218971 
	C279.001312,76.375610 281.040619,58.517090 297.815796,42.255001 
	C309.399475,33.902031 321.711639,31.873587 335.408020,36.482086 
	C356.010529,47.014885 364.351471,66.040878 356.953156,85.381020 
	C355.609589,88.893311 353.515350,92.200089 351.315125,95.278297 
	C349.415283,97.936234 349.978851,99.672157 352.067932,101.730911 
	C354.029236,103.663780 355.803955,104.262779 358.111542,102.366463 
	C365.963165,95.914207 375.123138,93.659470 385.546967,94.065018 
	C398.163330,96.368378 408.050659,102.199150 414.478058,113.067406 
	C422.580780,126.768570 420.843140,143.314453 409.828644,157.594330 
	C400.770203,166.388885 390.325745,170.781799 377.441620,169.948822 
	C370.556854,167.113419 364.003815,164.467712 357.740753,161.256470 
	C354.912170,159.806168 353.519409,160.918457 351.740967,162.618439 
	C349.700134,164.569168 349.438995,166.416855 351.287750,168.672318 
	C357.233795,175.926483 359.895721,184.347778 359.344604,193.641876 
	C358.178040,213.315277 345.365997,226.649368 324.406708,229.961777 
M386.928680,140.950012 
	C383.427063,140.778046 379.308685,141.702789 376.574860,140.165451 
	C372.890747,138.093719 370.952362,138.734344 368.660095,141.506302 
	C367.716949,142.646805 366.573914,143.621643 365.525757,144.675751 
	C360.523102,149.706863 360.601349,150.767059 366.374939,154.696701 
	C367.177185,155.242706 368.129059,155.568802 369.524780,156.499222 
	C372.352600,157.299744 375.180389,158.100266 378.902008,159.062546 
	C385.891907,159.570969 392.435791,158.482437 398.533051,153.451309 
	C400.485413,151.242569 402.437744,149.033829 404.896698,146.270096 
	C415.245544,128.034592 404.237152,106.327660 383.118195,104.924309 
	C374.417267,104.126343 367.439301,107.553764 361.320526,113.481613 
	C359.178375,115.556931 356.495026,117.073685 353.755615,118.261269 
	C343.797180,108.510635 333.838776,98.759995 323.737091,88.358627 
	C321.076538,85.629089 318.540253,82.762917 315.725433,80.203033 
	C311.804779,76.637474 310.914520,72.329781 312.414124,67.541275 
	C313.849518,62.957737 317.920105,62.261665 322.748322,62.004982 
	C330.297943,63.701557 334.246033,69.820786 330.387848,75.851402 
	C327.020020,81.115517 329.199860,83.552895 332.695709,86.529617 
	C333.707031,87.390770 334.699097,88.316605 335.514557,89.357986 
	C338.231598,92.827705 340.539642,92.269981 343.002930,88.984741 
	C349.716156,80.031372 351.056305,70.298912 346.224152,60.327923 
	C341.444092,50.464432 333.455048,44.744808 321.142487,44.802528 
	C309.407196,44.959843 301.059937,50.739910 296.501587,61.174488 
	C291.821564,71.887550 293.815704,82.089119 301.778412,90.748260 
	C304.102692,93.275780 307.206787,95.086182 309.953430,97.225288 
	C309.974823,98.116821 309.996185,99.008354 310.017578,99.899887 
	C303.013092,106.267540 296.008606,112.635193 288.411774,119.309555 
	C280.942902,126.582611 273.473999,133.855667 265.228760,141.236618 
	C264.091766,141.462006 262.958862,141.854736 261.817047,141.882690 
	C257.721283,141.982895 253.905792,140.949936 252.528824,136.692520 
	C251.179153,132.519531 250.765823,127.948166 254.367233,124.548096 
	C257.556488,121.537148 262.080322,120.676285 265.441193,123.174919 
	C270.421875,126.877815 273.148102,124.520355 276.162048,120.995529 
	C277.132141,119.861008 278.217529,118.811928 279.334534,117.818672 
	C282.182587,115.286194 281.683502,113.129272 278.905182,110.857933 
	C271.635864,104.915085 263.320709,103.434258 254.490616,105.637032 
	C240.746490,109.065651 232.145966,122.726875 234.587570,136.536026 
	C237.258682,151.643112 249.687393,160.467789 266.746857,158.870346 
	C273.590210,157.627747 278.759430,153.628372 283.562347,148.894943 
	C285.130280,147.349701 287.173950,146.287125 289.309021,145.593964 
	C299.539886,155.730240 309.770782,165.866501 320.309570,176.593201 
	C322.398254,178.707230 324.366669,180.959091 326.599762,182.907654 
	C331.839020,187.479462 332.657318,192.818863 329.189758,199.304047 
	C324.803802,202.946548 320.049866,202.467331 314.721558,200.027710 
	C311.251465,196.502625 310.314392,191.719681 312.797058,188.133652 
	C316.351257,182.999908 313.982849,180.387619 310.514191,177.370758 
	C309.387268,176.390640 308.310516,175.331680 307.337738,174.199722 
	C304.843933,171.297974 302.797760,171.702957 300.512146,174.607910 
	C293.451050,183.582291 292.019958,193.449295 296.881958,203.591690 
	C301.797272,213.845337 310.183441,219.509430 322.857544,219.125900 
	C334.555298,218.581390 343.924072,211.586090 347.523224,200.480804 
	C347.710785,199.329468 347.898315,198.178131 348.440369,196.306931 
	C349.312592,189.648270 349.143951,183.228714 344.079926,177.207520 
	C340.870575,173.327957 337.661224,169.448410 333.648407,164.597565 
	C340.966064,157.655548 348.262665,150.733505 356.102753,143.387848 
	C361.605682,137.916611 367.232147,132.562363 372.565155,126.930206 
	C375.759979,123.556183 379.348694,121.687378 384.604218,122.348465 
	C390.634674,124.734276 391.941986,127.244072 391.033112,135.678482 
	C389.915771,137.383392 388.798431,139.088303 386.928680,140.950012 
z"/>
<path fill="#141D38" opacity="1.000000" stroke="none" 
	d="
M358.442474,169.350861 
	C358.428925,169.181396 358.632996,168.859589 358.964905,168.713959 
	C358.948517,168.992920 358.804291,169.095734 358.442474,169.350861 
z"/>
<path fill="#141D38" opacity="1.000000" stroke="none" 
	d="
M360.118652,94.203247 
	C359.791321,94.749786 359.133179,95.006874 358.475037,95.263962 
	C358.571320,94.740486 358.667603,94.217010 358.944946,93.514359 
	C359.346649,93.528046 359.567261,93.720917 360.118652,94.203247 
z"/>
<path fill="#6C5DBB" opacity="1.000000" stroke="none" 
	d="
M322.001770,61.838810 
	C317.920105,62.261665 313.849518,62.957737 312.414124,67.541275 
	C310.914520,72.329781 311.804779,76.637474 315.725433,80.203033 
	C318.540253,82.762917 321.076538,85.629089 323.571838,88.967102 
	C322.946594,91.299995 322.150604,93.012489 322.088837,94.751053 
	C321.894928,100.210144 321.977295,105.679047 321.633301,111.223083 
	C314.549744,118.287506 307.785553,125.273003 302.142914,131.100235 
	C308.864014,138.515717 315.434265,145.764725 322.003784,153.481476 
	C322.001465,157.701492 322.259003,161.477051 321.924591,165.199448 
	C321.598541,168.828857 320.667236,172.403885 320.001648,176.002777 
	C309.770782,165.866501 299.539886,155.730240 289.271851,144.900864 
	C289.157806,135.806122 289.080963,127.404480 289.004150,119.002846 
	C296.008606,112.635193 303.013092,106.267540 310.017578,99.899887 
	C309.996185,99.008354 309.974823,98.116821 309.953430,97.225288 
	C307.206787,95.086182 304.102692,93.275780 301.778412,90.748260 
	C293.815704,82.089119 291.821564,71.887550 296.501587,61.174488 
	C301.059937,50.739910 309.407196,44.959843 321.571289,45.339260 
	C322.000641,51.196930 322.001190,56.517872 322.001770,61.838810 
z"/>
<path fill="#735DB8" opacity="1.000000" stroke="none" 
	d="
M320.155609,176.297989 
	C320.667236,172.403885 321.598541,168.828857 321.924591,165.199448 
	C322.259003,161.477051 322.001465,157.701492 322.204712,153.217194 
	C329.127655,145.728714 335.848938,138.972214 342.921936,131.862137 
	C335.570282,124.598572 328.761475,117.871368 321.952698,111.144150 
	C321.977295,105.679047 321.894928,100.210144 322.088837,94.751053 
	C322.150604,93.012489 322.946594,91.299995 323.643463,89.292465 
	C333.838776,98.759995 343.797180,108.510635 353.899292,119.031693 
	C354.548370,127.805222 355.053772,135.808334 355.559204,143.811447 
	C348.262665,150.733505 340.966064,157.655548 333.648407,164.597565 
	C337.661224,169.448410 340.870575,173.327957 343.835022,177.721786 
	C342.742981,178.745865 341.863129,179.208755 341.054108,179.773193 
	C336.153900,183.191986 335.971100,183.968781 339.885071,188.513382 
	C342.452393,191.494385 345.341095,194.198608 348.085876,197.026794 
	C347.898315,198.178131 347.710785,199.329468 346.871094,200.733261 
	C340.742340,200.306015 335.265686,199.626312 329.789062,198.946594 
	C332.657318,192.818863 331.839020,187.479462 326.599762,182.907654 
	C324.366669,180.959091 322.398254,178.707230 320.155609,176.297989 
z"/>
<path fill="#605DBF" opacity="1.000000" stroke="none" 
	d="
M266.001740,158.840836 
	C249.687393,160.467789 237.258682,151.643112 234.587570,136.536026 
	C232.145966,122.726875 240.746490,109.065651 254.490616,105.637032 
	C263.320709,103.434258 271.635864,104.915085 278.905182,110.857933 
	C281.683502,113.129272 282.182587,115.286194 279.334534,117.818672 
	C278.217529,118.811928 277.132141,119.861008 276.162048,120.995529 
	C273.148102,124.520355 270.421875,126.877815 265.441193,123.174919 
	C262.080322,120.676285 257.556488,121.537148 254.367233,124.548096 
	C250.765823,127.948166 251.179153,132.519531 252.528824,136.692520 
	C253.905792,140.949936 257.721283,141.982895 261.817047,141.882690 
	C262.958862,141.854736 264.091766,141.462006 265.616058,141.642151 
	C266.002808,147.645386 266.002258,153.243118 266.001740,158.840836 
z"/>
<path fill="#735DB8" opacity="1.000000" stroke="none" 
	d="
M322.375061,61.921898 
	C322.001190,56.517872 322.000641,51.196930 322.000641,45.404282 
	C333.455048,44.744808 341.444092,50.464432 346.224152,60.327923 
	C351.056305,70.298912 349.716156,80.031372 343.002930,88.984741 
	C340.539642,92.269981 338.231598,92.827705 335.514557,89.357986 
	C334.699097,88.316605 333.707031,87.390770 332.695709,86.529617 
	C329.199860,83.552895 327.020020,81.115517 330.387848,75.851402 
	C334.246033,69.820786 330.297943,63.701557 322.375061,61.921898 
z"/>
<path fill="#6C5DBB" opacity="1.000000" stroke="none" 
	d="
M322.008728,219.061462 
	C310.183441,219.509430 301.797272,213.845337 296.881958,203.591690 
	C292.019958,193.449295 293.451050,183.582291 300.512146,174.607910 
	C302.797760,171.702957 304.843933,171.297974 307.337738,174.199722 
	C308.310516,175.331680 309.387268,176.390640 310.514191,177.370758 
	C313.982849,180.387619 316.351257,182.999908 312.797058,188.133652 
	C310.314392,191.719681 311.251465,196.502625 314.922913,200.754410 
	C314.625641,206.263733 315.749207,210.422516 319.237915,213.986816 
	C320.535400,215.312424 321.106445,217.349060 322.008728,219.061462 
z"/>
<path fill="#7B5EB7" opacity="1.000000" stroke="none" 
	d="
M355.830963,143.599640 
	C355.053772,135.808334 354.548370,127.805222 354.050903,119.323807 
	C356.495026,117.073685 359.178375,115.556931 361.320526,113.481613 
	C367.439301,107.553764 374.417267,104.126343 383.559906,105.460587 
	C384.001770,111.320061 384.001923,116.643265 384.002075,121.966469 
	C379.348694,121.687378 375.759979,123.556183 372.565155,126.930206 
	C367.232147,132.562363 361.605682,137.916611 355.830963,143.599640 
z"/>
<path fill="#815DB4" opacity="1.000000" stroke="none" 
	d="
M384.303162,122.157471 
	C384.001923,116.643265 384.001770,111.320061 384.002350,105.533875 
	C404.237152,106.327660 415.245544,128.034592 404.432709,146.216522 
	C400.413025,141.701035 397.988403,135.936554 391.260681,135.127365 
	C391.941986,127.244072 390.634674,124.734276 384.303162,122.157471 
z"/>
<path fill="#655DBD" opacity="1.000000" stroke="none" 
	d="
M266.374298,158.855591 
	C266.002258,153.243118 266.002808,147.645386 266.004211,141.588196 
	C273.473999,133.855667 280.942902,126.582611 288.707947,119.156197 
	C289.080963,127.404480 289.157806,135.806122 289.117340,144.605774 
	C287.173950,146.287125 285.130280,147.349701 283.562347,148.894943 
	C278.759430,153.628372 273.590210,157.627747 266.374298,158.855591 
z"/>
<path fill="#6D59B3" opacity="1.000000" stroke="none" 
	d="
M322.433167,219.093674 
	C321.106445,217.349060 320.535400,215.312424 319.237915,213.986816 
	C315.749207,210.422516 314.625641,206.263733 315.146179,201.018463 
	C320.049866,202.467331 324.803802,202.946548 329.489410,199.125336 
	C335.265686,199.626312 340.742340,200.306015 346.651917,201.011047 
	C343.924072,211.586090 334.555298,218.581390 322.433167,219.093674 
z"/>
<path fill="#7B5EB7" opacity="1.000000" stroke="none" 
	d="
M397.959290,153.740265 
	C392.435791,158.482437 385.891907,159.570969 378.644226,158.715729 
	C379.126160,157.729767 380.018402,157.200211 380.572968,156.428101 
	C381.640442,154.941879 382.516815,153.318420 383.472473,151.751877 
	C381.446075,151.218536 379.025116,149.721588 377.476715,150.355591 
	C374.400818,151.615067 371.805542,154.048416 369.011688,155.996704 
	C368.129059,155.568802 367.177185,155.242706 366.374939,154.696701 
	C360.601349,150.767059 360.523102,149.706863 365.525757,144.675751 
	C366.573914,143.621643 367.716949,142.646805 368.660095,141.506302 
	C370.952362,138.734344 372.890747,138.093719 376.574860,140.165451 
	C379.308685,141.702789 383.427063,140.778046 387.592407,141.085358 
	C391.490509,145.393890 394.724915,149.567093 397.959290,153.740265 
z"/>
<path fill="#7857A9" opacity="1.000000" stroke="none" 
	d="
M398.246155,153.595795 
	C394.724915,149.567093 391.490509,145.393890 387.968597,141.006958 
	C388.798431,139.088303 389.915771,137.383392 391.146912,135.402924 
	C397.988403,135.936554 400.413025,141.701035 404.179382,146.494019 
	C402.437744,149.033829 400.485413,151.242569 398.246155,153.595795 
z"/>
<path fill="#6D59B3" opacity="1.000000" stroke="none" 
	d="
M348.263123,196.666870 
	C345.341095,194.198608 342.452393,191.494385 339.885071,188.513382 
	C335.971100,183.968781 336.153900,183.191986 341.054108,179.773193 
	C341.863129,179.208755 342.742981,178.745865 343.901520,178.069580 
	C349.143951,183.228714 349.312592,189.648270 348.263123,196.666870 
z"/>
<path fill="#7857A9" opacity="1.000000" stroke="none" 
	d="
M369.268250,156.247955 
	C371.805542,154.048416 374.400818,151.615067 377.476715,150.355591 
	C379.025116,149.721588 381.446075,151.218536 383.472473,151.751877 
	C382.516815,153.318420 381.640442,154.941879 380.572968,156.428101 
	C380.018402,157.200211 379.126160,157.729767 378.197327,158.634842 
	C375.180389,158.100266 372.352600,157.299744 369.268250,156.247955 
z"/>
<path fill="#141D38" opacity="1.000000" stroke="none" 
	d="
M321.633301,111.223083 
	C328.761475,117.871368 335.570282,124.598572 342.921936,131.862137 
	C335.848938,138.972214 329.127655,145.728714 322.205444,152.749481 
	C315.434265,145.764725 308.864014,138.515717 302.142914,131.100235 
	C307.785553,125.273003 314.549744,118.287506 321.633301,111.223083 
z"/>
</svg>